<?xml version="1.0" standalone="no"?>
<!DOCTYPE svg PUBLIC "-//W3C//DTD SVG 20010904//EN"
 "http://www.w3.org/TR/2001/REC-SVG-20010904/DTD/svg10.dtd">
<svg version="1.0" xmlns="http://www.w3.org/2000/svg"
 width="500.000000pt" height="500.000000pt" viewBox="0 0 500.000000 500.000000"
 preserveAspectRatio="xMidYMid meet">
<g transform="translate(0.000000,500.000000) scale(0.100000,-0.100000)"
fill="#000000" stroke="none">
<path d="M1924 4355 c-88 -28 -164 -87 -199 -156 -46 -87 -45 -66 -45 -1429 0
-1357 0 -1342 43 -1427 27 -50 97 -114 155 -140 81 -36 187 -35 264 1 95 45
167 132 187 226 9 41 11 386 9 1375 l-3 1320 -22 47 c-25 55 -94 133 -137 155
-79 41 -177 52 -252 28z"/>
<path d="M2930 3801 c-95 -21 -172 -81 -226 -176 l-29 -50 0 -1361 0 -1361 29
-56 c31 -63 83 -114 148 -149 37 -20 58 -23 143 -23 85 0 106 3 143 23 71 38
123 92 154 159 l28 63 0 1350 0 1351 -27 55 c-32 65 -96 127 -159 154 -51 22
-152 33 -204 21z"/>
<path d="M930 3334 c-112 -30 -188 -99 -229 -209 -20 -54 -21 -73 -21 -548 0
-514 1 -522 45 -606 20 -39 97 -111 142 -132 69 -33 139 -44 198 -32 120 25
206 91 253 191 l27 57 3 506 c2 498 2 508 -19 565 -38 101 -127 180 -237 208
-72 19 -91 19 -162 0z"/>
<path d="M3924 3206 c-105 -25 -185 -93 -231 -193 l-25 -53 2 -526 c1 -450 3
-532 16 -572 29 -84 84 -144 179 -195 33 -17 57 -21 130 -21 78 0 97 4 143 28
68 35 130 97 162 161 l25 50 0 546 0 545 -25 50 c-29 57 -93 125 -141 150 -33
17 -139 44 -169 43 -8 0 -38 -6 -66 -13z"/>
</g>
</svg>
